<svg xmlns="http://www.w3.org/2000/svg" width="175" height="83" fill="none"><g clip-path="url(#a)"><path fill="#4B1F68" d="M98.15 33.15v48.88l33.12-33.12V.03L98.15 33.15Z"/><path fill="#6F4B99" d="M82.39.03 49.27 33.15h48.88L131.27.03H82.39ZM141.06 0v33.12L174.19 0h-33.13Z"/><path fill="#1D1D1B" d="M11.36 61.57c-1.64.52-2.57.62-3.82.62-3.04 0-5.07-2.23-5.07-5.64v-3.74H0V49.2h2.47v-4.29h4.21v4.29h4.29v3.61H6.68v3.61c0 1.27.73 1.9 1.98 1.9.6 0 1.3-.13 2.23-.31l.47 3.56ZM13.05 44.86a2.38 2.38 0 0 1 2.47-2.39 2.38 2.38 0 0 1 2.47 2.39c0 1.38-1.12 2.36-2.47 2.36a2.4 2.4 0 0 1-2.47-2.36Zm4.6 16.94h-4.21V49.2h4.21v12.6ZM60.89 61.81h-4.21v-.7c-.94.6-2.08.96-3.46.96-3.4 0-6.26-2.83-6.26-6.58s2.86-6.58 6.26-6.58c1.38 0 2.52.36 3.46.96v-.68h4.21v12.62ZM49.17 44.86c0-1.3 1.07-2.29 2.39-2.29a2.3 2.3 0 0 1 2.37 2.29c0 1.3-1.07 2.29-2.37 2.29s-2.39-.99-2.39-2.29Zm7.51 12.58v-3.9a3.27 3.27 0 0 0-2.62-1.2c-1.72 0-2.96 1.4-2.96 3.14 0 1.74 1.25 3.12 2.96 3.12.93 0 1.85-.26 2.62-1.17m-1.56-12.58c0-1.3 1.07-2.29 2.39-2.29a2.3 2.3 0 0 1 2.36 2.29c0 1.3-1.07 2.29-2.36 2.29a2.34 2.34 0 0 1-2.39-2.29ZM76.58 61.81h-4.62l-2.52-3.62-2.55 3.62h-4.62l4.41-6.29-4.41-6.32h4.8l2.34 3.33 2.37-3.33h4.8l-4.41 6.32 4.4 6.29ZM88.74 61.57c-1.64.52-2.57.62-3.82.62-3.04 0-5.07-2.23-5.07-5.64v-3.74h-2.47V49.2h2.47v-4.29h4.21v4.29h4.29v3.61h-4.29v3.61c0 1.27.73 1.9 1.98 1.9.6 0 1.3-.13 2.23-.31l.47 3.56ZM18.28 81.75h-4L8.82 69.14h4.45l3.01 7.28 3.02-7.28h4.44l-5.46 12.61ZM36.95 76.6l.03.08h-8.99c.34 1.14 1.22 2.03 2.83 2.03.88 0 1.56-.34 1.92-.91h4.16c-.6 2.6-3.01 4.24-6.13 4.24-4.13 0-6.89-2.76-6.89-6.6s2.68-6.57 6.7-6.57c3.66 0 6.45 2.52 6.45 6.32 0 .47 0 .96-.08 1.43m-9.02-2.39h5.15c-.23-1.38-1.14-2.1-2.5-2.1-1.43 0-2.34.83-2.65 2.1M47.74 72.93c-2.05.08-3.35.62-4.34 1.61v7.2h-4.21v-12.6h4.21v1.35a6.32 6.32 0 0 1 4.34-1.56v4ZM53.51 79.28v2.47H49.3V63.29h4.21v10.58l4.4-4.73h5.01l-4.78 5.15 5.2 7.46H58.3l-3.02-4.37-1.77 1.9ZM76.35 76.6l.03.08h-8.99c.34 1.14 1.22 2.03 2.83 2.03.88 0 1.56-.34 1.92-.91h4.16c-.6 2.6-3.01 4.24-6.13 4.24-4.13 0-6.89-2.76-6.89-6.6s2.68-6.57 6.7-6.57c3.66 0 6.45 2.52 6.45 6.32 0 .47 0 .96-.08 1.43m-9.02-2.39h5.15c-.24-1.38-1.14-2.1-2.5-2.1-1.43 0-2.34.83-2.65 2.1ZM88.74 81.51c-1.64.52-2.57.62-3.82.62-3.04 0-5.07-2.24-5.07-5.64v-3.74h-2.47v-3.61h2.47v-4.29h4.21v4.29h4.29v3.61h-4.29v3.61c0 1.27.73 1.9 1.98 1.9.6 0 1.3-.13 2.23-.31l.47 3.56ZM41.78 61.81h-4L32.32 49.2h4.45l3.01 7.28 3.02-7.28h4.44l-5.46 12.61ZM24.53 61.81h-4.21V43.35h4.21v18.46ZM31.15 61.81h-4.21V43.35h4.21v18.46Z"/></g><defs><clipPath id="a"><path fill="#fff" d="M0 0h174.19v82.14H0z"/></clipPath></defs></svg>